<?xml version="1.0" encoding="utf-8"?>
<!-- Generator: Adobe Illustrator 17.1.0, SVG Export Plug-In . SVG Version: 6.00 Build 0)  -->
<!DOCTYPE svg PUBLIC "-//W3C//DTD SVG 1.1//EN" "http://www.w3.org/Graphics/SVG/1.1/DTD/svg11.dtd">
<svg version="1.1" id="Слой_1" xmlns="http://www.w3.org/2000/svg" xmlns:xlink="http://www.w3.org/1999/xlink" x="0px" y="0px"
	 viewBox="62.4 -15 2808 2864.6" enable-background="new 62.4 -15 2808 2864.6" xml:space="preserve">
<path display="none" fill="none" stroke="#000000" stroke-miterlimit="10" d="M2853.6,696.3c-17.9,286.2-135.2,659.5-512.5,1051.8
	C1519.8,2603.8,585.9,3036.1,593.9,2971.1l-53.3-530.5l-529-38.6c-14.1-1.4-6.2-38.6,0-107.5"/>
<path display="none" fill="none" stroke="#000000" stroke-miterlimit="10" d="M550.2,2345.8l-531.3-38.6
	c-64.5,10,341.7-935.3,1173.9-1780.1C2011.6-305,2774,59.4,2774,59.4s385.2,752-423.3,1593.9
	C1529.3,2508.4,595.5,2940.8,603.4,2875.7L550.2,2345.8z"/>
<path display="none" fill="none" stroke="#000000" stroke-miterlimit="10" d="M550.2,2345.8c-9.5,95.2-9.5,95.2-9.5,95.2"/>
<path display="none" fill="none" stroke="#000000" stroke-miterlimit="10" d="M605.7,2881.1c-8.5,95.7-8.5,95.7-8.5,95.7"/>
<path fill="none" stroke="#000000" stroke-width="30" stroke-miterlimit="10" d="M2639.7,237.9c321.4,335.6,278.7,902.3-95.7,1265.4
	l-989.2,960.1c-374.4,363.2-938,385.3-1259.4,49.7l0,0C-26,2177.5,16.7,1610.8,391.2,1247.7l988.7-959.6
	C1754.2-75.6,2318.2-97.9,2639.7,237.9L2639.7,237.9z"/>
<path fill="none" stroke="#000000" stroke-width="30" stroke-miterlimit="10" d="M2848.3,882.6c-3.3,247.7-108.2,504.5-310.7,701.4
	l-987.2,962.4c-373.9,364-936.7,386.2-1257.6,49.8l0,0C127,2422.1,58.1,2186.3,82,1948.5"/>
</svg>
