<?xml version="1.0" encoding="utf-8"?>
<!-- Generator: Adobe Illustrator 19.0.1, SVG Export Plug-In . SVG Version: 6.00 Build 0)  -->
<svg version="1.1" id="Слой_1" xmlns="http://www.w3.org/2000/svg" xmlns:xlink="http://www.w3.org/1999/xlink" x="0px" y="0px"
	 viewBox="0 0 595.3 595.3" style="enable-background:new 0 0 595.3 595.3;" xml:space="preserve">
<style type="text/css">
	.st0{fill:none;stroke:#939598;stroke-width:1.3101;stroke-miterlimit:10;}
</style>
<g>
	<path class="st0" d="M522.9,391c96.5-47.2,96.5-140.6-0.1-187.6c34.4-101-30.8-166.2-131.7-131.5C344.3-23.9,252.1-24,205,71.8
		C103.5,36.7,37.5,102.7,72.4,204.3c-96.5,47.2-96.5,140.6,0.1,187.6C38,492.8,103.3,558,204.1,523.4
		c46.8,95.8,139.1,95.9,186.1,0.1C491.8,558.6,557.8,492.6,522.9,391z"/>
	<path class="st0" d="M470.9,469.2c107.2-7.2,142.5-93.6,70.8-173.7c70.1-80.4,34.3-165.5-72.2-171.5
		C462.4,17.6,377-17.3,297.3,53.5c-80.7-70.9-166.8-34.8-172.9,72.5c-107.2,7.2-142.5,93.6-70.8,173.7
		c-70.1,80.4-34.3,165.5,72.2,171.5c7.1,106.4,92.5,141.3,172.2,70.5C378.7,612.6,464.8,576.5,470.9,469.2z"/>
</g>
</svg>
