<?xml version="1.0" encoding="iso-8859-1"?>
<!-- Generator: Adobe Illustrator 19.0.0, SVG Export Plug-In . SVG Version: 6.00 Build 0)  -->
<svg xmlns="http://www.w3.org/2000/svg" xmlns:xlink="http://www.w3.org/1999/xlink" version="1.1" id="Capa_1" x="0px" y="0px" viewBox="0 0 512 512" style="enable-background:new 0 0 512 512;" xml:space="preserve" width="512px" height="512px">
<g>
	<g>
		<path d="M198.987,305.211c11.407-9.676,18.671-24.09,18.671-40.221c0-29.126-23.61-52.73-52.736-52.736    c-29.138,0.007-52.736,23.61-52.749,52.736c0,16.131,7.266,30.545,18.671,40.221c-31.2,13.267-53.074,44.181-53.074,80.229    c0,2.56,1.036,5.061,2.845,6.877c1.809,1.814,4.316,2.845,6.877,2.845h154.864c2.56,0,5.061-1.036,6.877-2.845    c1.814-1.809,2.845-4.316,2.845-6.877C252.066,349.392,230.192,318.477,198.987,305.211z M141.377,241.45    c6.053-6.046,14.317-9.747,23.545-9.754c9.229,0.007,17.479,3.707,23.545,9.754c6.041,6.059,9.747,14.317,9.747,23.539    c0,9.229-3.707,17.486-9.747,23.545c-6.066,6.041-14.317,9.747-23.545,9.754c-9.229-0.013-17.492-3.72-23.545-9.754    c-6.053-6.059-9.747-14.317-9.76-23.545C131.63,255.767,135.324,247.51,141.377,241.45z M97.987,375.718    c2.125-14.803,8.964-28.044,19.06-38.16c12.281-12.269,29.138-19.825,47.875-19.832c18.724,0.007,35.594,7.564,47.875,19.832    c10.104,10.117,16.922,23.357,19.047,38.16H97.987z" fill="#5f9913"/>
	</g>
</g>
<g>
	<g>
		<path d="M411.544,291.646H294.886c-5.366,0-9.722,4.355-9.722,9.722s4.355,9.722,9.722,9.722h116.658    c5.366,0,9.722-4.355,9.722-9.722C421.266,296.001,416.91,291.646,411.544,291.646z" fill="#5f9913"/>
	</g>
</g>
<g>
	<g>
		<path d="M411.544,233.317H294.886c-5.366,0-9.722,4.355-9.722,9.722s4.355,9.722,9.722,9.722h116.658    c5.366,0,9.722-4.355,9.722-9.722C421.266,237.672,416.91,233.317,411.544,233.317z" fill="#5f9913"/>
	</g>
</g>
<g>
	<g>
		<path d="M393.592,349.975h-98.706c-5.366,0-9.722,4.355-9.722,9.722s4.355,9.722,9.722,9.722h98.706    c5.366,0,9.722-4.355,9.722-9.722S398.965,349.975,393.592,349.975z" fill="#5f9913"/>
	</g>
</g>
<g>
	<g>
		<path d="M486.076,116.658H309.39l-5.568-58.446c-1.354-14.194-14.128-25.808-28.38-25.808h-38.886    c-14.265,0-27.039,11.614-28.38,25.808l-5.568,58.446H25.924C11.66,116.658,0,128.324,0,142.583v311.088    c0,14.258,11.66,25.924,25.924,25.924h460.152c14.252,0,25.924-11.665,25.924-25.924V142.583    C512,128.324,500.328,116.658,486.076,116.658z M219.479,144.532l8.049-84.479c0.409-4.219,4.79-8.205,9.028-8.205h38.886    c4.239,0,8.62,3.986,9.028,8.211l8.049,84.474c0.129,1.367-0.188,2.514-0.914,3.318c-0.732,0.798-1.834,1.212-3.201,1.212h-64.809    c-1.367,0-2.482-0.415-3.201-1.218C219.674,147.041,219.357,145.893,219.479,144.532z M492.559,453.671h-0.001    c0,3.512-2.974,6.481-6.481,6.481H25.924c-3.519,0-6.481-2.969-6.481-6.481V142.583c0-3.512,2.961-6.481,6.481-6.481H200.75    l-0.622,6.597c-1.354,14.194,9.203,25.808,23.468,25.808h64.81c14.252,0,24.81-11.614,23.468-25.808l-0.635-6.597h174.839    c3.506,0,6.481,2.969,6.481,6.481V453.671z" fill="#5f9913"/>
	</g>
</g>
<g>
</g>
<g>
</g>
<g>
</g>
<g>
</g>
<g>
</g>
<g>
</g>
<g>
</g>
<g>
</g>
<g>
</g>
<g>
</g>
<g>
</g>
<g>
</g>
<g>
</g>
<g>
</g>
<g>
</g>
</svg>
