<?xml version="1.0" encoding="iso-8859-1"?>
<!-- Generator: Adobe Illustrator 16.0.0, SVG Export Plug-In . SVG Version: 6.00 Build 0)  -->
<!DOCTYPE svg PUBLIC "-//W3C//DTD SVG 1.1//EN" "http://www.w3.org/Graphics/SVG/1.1/DTD/svg11.dtd">
<svg xmlns="http://www.w3.org/2000/svg" xmlns:xlink="http://www.w3.org/1999/xlink" version="1.1" id="Capa_1" x="0px" y="0px" width="512px" height="512px" viewBox="0 0 928 928" style="enable-background:new 0 0 928 928;" xml:space="preserve">
<g>
	<path d="M795.9,470.363l92-62.5c13.5-9.2,14.699-28.601,2.5-39.4l-94.5-83.5V470.363z" fill="#aa8c67"/>
	<path d="M430.9,20.862l-51.9,45.9h170l-51.9-45.9C478.2,4.163,449.8,4.163,430.9,20.862z" fill="#aa8c67"/>
	<path d="M40.2,407.863l92,62.5V284.962l-94.5,83.5C25.4,379.262,26.7,398.762,40.2,407.863z" fill="#aa8c67"/>
	<path d="M640.9,617.963l244.699,236.4c15.9,15.3,42.4,4.1,42.4-18v-366.2c0-20.101-22.5-32-39-20.701L640.9,617.963z" fill="#aa8c67"/>
	<path d="M42.4,854.363l244.7-236.4L39,449.462c-16.6-11.3-39,0.6-39,20.701v366.2C0,858.463,26.5,869.663,42.4,854.363z" fill="#aa8c67"/>
	<path d="M858.3,876.663l-247-238.601L501.9,712.363c-11.5,7.8-24.7,11.699-37.9,11.699s-26.4-3.899-37.9-11.699L316.7,638.062   l-247,238.601c-16.2,15.6-5.1,43,17.4,43H841C863.4,919.562,874.5,892.263,858.3,876.663z" fill="#aa8c67"/>
	<path d="M345,96.762H212.1c-27.6,0-50,22.4-50,50v109.1v2.6v232.3l0,0l271.7,188.5c8.9,6.7,19.5,10.101,30.101,10.101   c10.6,0,21.199-3.4,30.1-10.101l271.7-188.5v-232.3v-2.6v-109.1c0-27.6-22.4-50-50-50H583h-23.4H368.4H345z M296,436.462   c0-8.3,6.7-15,15-15h306c8.3,0,15,6.7,15,15s-6.7,15-15,15H311C302.7,451.462,296,444.762,296,436.462z M617,283.962   c8.3,0,15,6.7,15,15s-6.7,15-15,15H311c-8.3,0-15-6.7-15-15s6.7-15,15-15H617z" fill="#aa8c67"/>
</g>
<g>
</g>
<g>
</g>
<g>
</g>
<g>
</g>
<g>
</g>
<g>
</g>
<g>
</g>
<g>
</g>
<g>
</g>
<g>
</g>
<g>
</g>
<g>
</g>
<g>
</g>
<g>
</g>
<g>
</g>
</svg>
