<?xml version="1.0" encoding="iso-8859-1"?>
<!-- Generator: Adobe Illustrator 19.0.0, SVG Export Plug-In . SVG Version: 6.00 Build 0)  -->
<svg xmlns="http://www.w3.org/2000/svg" xmlns:xlink="http://www.w3.org/1999/xlink" version="1.1" id="Capa_1" x="0px" y="0px" viewBox="0 0 512 512" style="enable-background:new 0 0 512 512;" xml:space="preserve" width="512px" height="512px">
<g>
	<g>
		<path d="M276.813,217.931C260.547,212.668,243.451,210,226,210c-17.604,0-36.006,2.817-51.813,7.931    c-7.882,2.55-12.204,11.007-9.653,18.889c2.55,7.881,11.003,12.204,18.89,9.654C196.326,242.299,211.447,240,226,240    c14.312,0,28.3,2.178,41.576,6.474c7.886,2.551,16.34-1.775,18.89-9.654C289.017,228.939,284.694,220.482,276.813,217.931z" fill="#5f9913"/>
	</g>
</g>
<g>
	<g>
		<path d="M497,150c-8.284,0-15,6.716-15,15c0,5.258-0.915,10.305-2.58,15c-6.192-17.458-22.865-30-42.42-30    c-24.813,0-45,20.187-45,45s20.187,45,45,45c0.775,0,1.546-0.02,2.313-0.059c3.509-0.107,6.957-0.453,10.331-1.029    c-5.367,15.557-19.371,27.623-36.139,30.448c-9.105-27.011-26.317-51.696-50.622-71.95C326.194,166.837,277.582,150,226,150    c-28.414,0-56.688,5.258-82.363,15.265c-18.758-14.613-41.802-22.399-65.791-22.116c-27.456,0.333-53.273,11.213-72.698,30.638    c-5.853,5.852-5.858,15.356,0,21.213l46.095,46.094c-6.045,9.862-10.703,19.66-14.069,29.588C16.077,274.396,0,292.855,0,315v31    c0,24.813,20.187,45,45,45h6.442C61.66,408.084,74.801,423.382,90,435.874V497c0,8.284,6.716,15,15,15h60c8.284,0,15-6.716,15-15    v-19.586c15.058,3.018,30.667,4.586,46,4.586c15.081,0,30.15-1.524,45-4.543V497c0,8.284,6.716,15,15,15h60    c8.284,0,15-6.716,15-15v-61.114c37.703-30.841,60-75.505,60-120.886c0-5.485-0.316-10.927-0.933-16.312    c14.729-2.752,28.361-9.799,39.344-20.535C473.978,263.915,482,245.038,482,225v-0.041c18.204-13.697,30-35.475,30-59.959    C512,156.716,505.284,150,497,150z M337.021,416.564c-3.789,2.832-6.021,7.285-6.021,12.015V482h-30v-23.718    c0-4.729-2.23-9.182-6.019-12.014c-3.789-2.832-8.688-3.712-13.227-2.373C263.528,449.273,244.77,452,226,452    c-19.159,0-38.784-2.803-56.755-8.104c-4.535-1.339-9.437-0.459-13.227,2.373C152.23,449.1,150,453.553,150,458.282V482h-30    v-53.421c0-4.73-2.231-9.184-6.021-12.016c-16.631-12.429-30.638-28.877-40.506-47.567C70.877,364.078,65.771,361,60.209,361H45    c-8.271,0-15-6.729-15-15v-31c0-8.271,6.729-15,15-15h3.614c6.917,0,12.938-4.73,14.574-11.451    c3.286-13.496,9.682-26.817,19.551-40.723c4.234-5.966,3.547-14.115-1.626-19.288l-43.096-43.095    c28.414-18.893,66.644-16.282,92.603,8.132c4.395,4.134,10.839,5.23,16.355,2.786C171.121,185.657,198.447,180,226,180    c90.981,0,165,60.561,165,135C391,353.335,370.82,391.303,337.021,416.564z M437,210c-8.271,0-15-6.729-15-15s6.729-15,15-15    s15,6.729,15,15S445.271,210,437,210z" fill="#5f9913"/>
	</g>
</g>
<g>
	<g>
		<path d="M226,0c-41.355,0-75,33.645-75,75s33.645,75,75,75s75-33.645,75-75S267.355,0,226,0z M226,120c-24.813,0-45-20.187-45-45    s20.187-45,45-45s45,20.187,45,45S250.813,120,226,120z" fill="#5f9913"/>
	</g>
</g>
<g>
	<g>
		<circle cx="105" cy="285" r="15" fill="#5f9913"/>
	</g>
</g>
<g>
</g>
<g>
</g>
<g>
</g>
<g>
</g>
<g>
</g>
<g>
</g>
<g>
</g>
<g>
</g>
<g>
</g>
<g>
</g>
<g>
</g>
<g>
</g>
<g>
</g>
<g>
</g>
<g>
</g>
</svg>
