<svg xmlns="http://www.w3.org/2000/svg" viewBox="0 0 511.999 511.999" width="512" height="512"><path d="M480.031 133.191a27.924 27.924 0 0 0-12.555-15.431L335.142 41.359c-3.589-2.07-8.176-.844-10.246 2.745a7.501 7.501 0 0 0 2.745 10.246c142.381 82.202 134.628 76.846 137.107 81.21-2.783 4.914 9.093-3.185-202.274 118.847-3.932 2.27-9.017 2.272-12.95-.001C39.929 133.397 49.92 140.273 47.251 135.559c2.482-4.369-11.345 4.498 202.275-118.834a12.98 12.98 0 0 1 12.95 0l43.617 25.183a7.501 7.501 0 0 0 7.501-12.991L269.976 3.735c-8.622-4.979-19.333-4.979-27.952 0L44.523 117.76c-8.913 5.145-13.976 14.555-13.976 24.208v156.389a7.5 7.5 0 0 0 7.501 7.501 7.5 7.5 0 0 0 7.501-7.501V153.963l196.473 113.433c.521.301 1.052.584 1.59.85.164.081.334.15.499.228.377.177.753.355 1.137.515.209.087.422.161.633.242.347.135.693.272 1.045.393.231.079.465.145.698.218.292.092.581.192.875.274v224.555L52.025 381.24a12.996 12.996 0 0 1-6.477-11.219v-46.329a7.5 7.5 0 0 0-7.501-7.501 7.5 7.5 0 0 0-7.501 7.501v46.329c0 9.953 5.354 19.23 13.976 24.209L242.02 508.254a27.975 27.975 0 0 0 13.978 3.745c4.902 0 9.736-1.295 13.977-3.744l197.5-114.026c8.62-4.978 13.975-14.254 13.975-24.208V141.969c.001-5.148-1.556-9.191-1.419-8.778zm-13.58 236.831a12.995 12.995 0 0 1-6.476 11.218L263.5 494.672V270.116c6.815-1.899 2.885-.646 202.951-116.154v216.06z" fill="#FFF"/><path d="M255.919 112.602c-18.833 0-33.585 11.106-33.585 25.285s14.752 25.285 33.585 25.285 33.585-11.106 33.585-25.285c-.001-14.18-14.753-25.285-33.585-25.285zm0 35.568c-10.637 0-18.584-5.429-18.584-10.284 0-4.854 7.947-10.284 18.584-10.284s18.584 5.428 18.584 10.284c-.001 4.855-7.947 10.284-18.584 10.284zm-129.08 100.471c-3.504-24.748-35.353-37.492-51.065-20.072-9.833 10.91-7.711 28.909 4.73 40.124l-.001-.001c12.457 11.23 30.578 11.452 40.397.558 4.937-5.475 7.046-12.795 5.939-20.609zm-36.29 8.91c-6.192-5.581-7.855-14.253-3.633-18.938 1.863-2.067 4.618-3.073 7.648-3.073 3.833 0 8.105 1.612 11.564 4.729 3.234 2.915 5.314 6.635 5.857 10.473 1.693 11.936-12.002 15.317-21.436 6.809zm83.521 67.648c-1.034-7.317-4.823-14.247-10.667-19.515-5.844-5.267-13.128-8.318-20.513-8.593-7.889-.286-14.949 2.562-19.885 8.037-10.134 11.241-7.437 29.157 4.729 40.124 20.385 18.371 49.941 5.411 46.336-20.053zm-36.29 8.911c-6.303-5.68-7.838-14.271-3.631-18.937 2.056-2.281 5.105-3.212 8.187-3.09 3.874.144 7.79 1.828 11.024 4.744 3.234 2.915 5.314 6.636 5.859 10.475 1.678 11.857-11.908 15.399-21.439 6.808zm83.522 67.646c-3.51-24.808-35.386-37.458-51.064-20.071-10.133 11.24-7.441 29.153 4.73 40.124 5.891 5.309 13.548 8.613 21.61 8.613 7.443-.001 14.081-2.838 18.786-8.058 4.936-5.474 7.044-12.792 5.938-20.608zm-17.081 10.565c-4.237 4.703-12.956 3.983-19.21-1.653v-.001c-9.337-8.416-7.561-22.011 4.017-22.011 8.097 0 16.253 6.952 17.42 15.202.475 3.341-.316 6.346-2.227 8.463zm231.987-183.752c-9.834-10.905-27.955-10.654-40.397.559-5.844 5.267-9.632 12.197-10.668 19.514-1.106 7.815 1.003 15.135 5.938 20.611 4.829 5.353 11.652 8.02 18.822 8.02 7.436 0 15.243-2.868 21.576-8.578 12.441-11.215 14.564-29.214 4.729-40.126zm-14.773 28.981l-.001.001c-6.19 5.582-14.987 6.336-19.21 1.655-1.909-2.118-2.7-5.123-2.226-8.464.543-3.838 2.623-7.558 5.857-10.474 3.459-3.117 7.731-4.729 11.564-4.729 3.027 0 5.782 1.007 7.647 3.072 4.223 4.687 2.561 13.359-3.631 18.939zm-79.688 26.09c-9.831-10.907-27.954-10.661-40.398.556-12.172 10.971-14.859 28.888-4.729 40.122 15.836 17.567 47.595 4.454 51.065-20.07 1.105-7.815-1.003-15.135-5.938-20.608zm-14.776 28.98c-6.286 5.668-14.991 6.333-19.212 1.653-4.211-4.671-2.658-13.266 3.632-18.936 6.191-5.578 14.988-6.339 19.212-1.653 4.205 4.663 2.674 13.253-3.632 18.936zm14.775 69.067c-15.669-17.382-47.553-4.744-51.064 20.07-3.542 25.015 25.586 38.755 46.334 20.054 5.843-5.267 9.633-12.197 10.669-19.515 1.105-7.816-1.004-15.136-5.939-20.609zm-14.773 28.979c-6.362 5.734-15.034 6.287-19.211 1.653-4.206-4.664-2.669-13.256 3.63-18.936 6.197-5.582 14.994-6.336 19.213-1.653 4.206 4.667 2.668 13.257-3.632 18.936zm68.838-83.494c-12.44 11.216-14.562 29.215-4.728 40.123 4.705 5.22 11.343 8.058 18.786 8.058.364 0 .731-.007 1.1-.021 15.267-.565 29.035-12.966 31.18-28.106 3.594-25.375-25.949-38.425-46.338-20.054zm25.624 28.424c-6.419 5.786-15.073 6.241-19.211 1.655-6.925-7.682 2.255-23.666 15.194-23.666 11.631.001 13.316 13.633 4.017 22.011z" fill="#FFF"/></svg>