<svg xmlns="http://www.w3.org/2000/svg" width="512" height="512"><g fill="#FFF"><path d="M437.02 74.98C388.667 26.628 324.38 0 256 0S123.333 26.628 74.98 74.98 0 187.62 0 256s26.628 132.667 74.98 181.02S187.62 512 256 512s132.667-26.628 181.02-74.98S512 324.38 512 256s-26.628-132.667-74.98-181.02zm30.809 294.082l-41.73-24.093c12.809-24.39 20.521-51.852 21.721-80.969h48.033c-1.21 37.221-10.847 72.979-28.024 105.062zM248 447.821v48.033c-37.221-1.211-72.979-10.847-105.062-28.024l24.093-41.73c24.389 12.808 51.851 20.521 80.969 21.721zm16 0c29.118-1.2 56.58-8.913 80.969-21.721l24.093 41.73c-32.083 17.177-67.841 26.813-105.062 28.024v-48.033zM256 432c-97.047 0-176-78.953-176-176S158.953 80 256 80s176 78.953 176 176-78.953 176-176 176zM16.146 264h48.033c1.2 29.118 8.913 56.58 21.721 80.969l-41.73 24.093C26.994 336.979 17.357 301.221 16.146 264zm28.025-121.062l41.73 24.093C73.092 191.42 65.379 218.882 64.179 248H16.146c1.211-37.221 10.848-72.979 28.025-105.062zM264 64.179V16.146c37.221 1.211 72.979 10.847 105.062 28.024L344.969 85.9C320.58 73.092 293.118 65.379 264 64.179zm-16 0c-29.118 1.2-56.58 8.913-80.969 21.721l-24.093-41.73C175.021 26.994 210.779 17.357 248 16.146v48.033zM447.821 248c-1.2-29.118-8.913-56.58-21.721-80.969l41.73-24.093c17.177 32.083 26.813 67.841 28.024 105.062h-48.033zm11.975-118.899l-41.714 24.083a193.529 193.529 0 0 0-59.266-59.266l24.083-41.714a241.892 241.892 0 0 1 42.806 34.09 241.86 241.86 0 0 1 34.091 42.807zM86.294 86.294a241.883 241.883 0 0 1 42.806-34.09l24.083 41.714a193.529 193.529 0 0 0-59.266 59.266l-41.714-24.083a241.95 241.95 0 0 1 34.091-42.807zm-34.09 296.605l41.714-24.083a193.529 193.529 0 0 0 59.266 59.266l-24.083 41.714a241.892 241.892 0 0 1-42.806-34.09 241.86 241.86 0 0 1-34.091-42.807zm373.502 42.807a241.883 241.883 0 0 1-42.806 34.09l-24.083-41.714a193.529 193.529 0 0 0 59.266-59.266l41.714 24.083a241.95 241.95 0 0 1-34.091 42.807z"/><path d="M362.101 158.641a7.977 7.977 0 0 0 5.895 2.59 8 8 0 0 0 5.891-13.41 161.518 161.518 0 0 0-9.714-9.713 8 8 0 0 0-10.819 11.787 145.189 145.189 0 0 1 8.747 8.746zM112 256c0-79.402 64.598-144 144-144 23.799 0 47.377 5.925 68.187 17.134a8 8 0 0 0 7.587-14.087C308.641 102.586 282.439 96 256 96c-88.224 0-160 71.776-160 160 0 36.744 12.766 72.633 35.947 101.056a7.985 7.985 0 0 0 6.205 2.944 8 8 0 0 0 6.195-13.057C123.487 321.368 112 289.07 112 256zm284.937-75.804a8 8 0 0 0-14.085 7.591C394.07 208.602 400 232.19 400 256c0 79.402-64.598 144-144 144-33.071 0-65.37-11.488-90.946-32.349a8 8 0 0 0-11.256 1.144 8 8 0 0 0 1.144 11.256C183.365 403.233 219.254 416 256 416c88.224 0 160-71.776 160-160 0-26.451-6.592-52.664-19.063-75.804z"/><path d="M316.398 331.09c14.183 0 27.406-5.635 37.233-15.866 9.823-10.227 14.917-23.68 14.345-37.881-1.057-26.204-22.384-47.906-48.553-49.407-17.376-.997-33.886 6.829-44.159 20.414.348-1.167.715-2.33 1.102-3.486.462-1.379 1.516-2.545 2.968-3.282 18.306-9.291 29.375-28.534 28.2-49.023-1.501-26.169-23.203-47.496-49.407-48.553-14.21-.563-27.655 4.522-37.881 14.344-10.232 9.828-15.867 23.051-15.867 37.234 0 19.547 10.863 37.185 28.349 46.03 1.41.713 2.437 1.852 2.891 3.207.392 1.17.765 2.347 1.117 3.529-10.273-13.583-26.77-21.412-44.159-20.414-26.17 1.501-47.497 23.203-48.553 49.407-.572 14.201 4.522 27.654 14.345 37.881 9.827 10.231 23.05 15.866 37.233 15.866 16.411 0 31.499-7.674 41.147-20.497-4.859 16.299-13.511 31.435-25.283 43.919A7.999 7.999 0 0 0 217.287 368h77.426a7.999 7.999 0 0 0 5.821-13.488c-11.771-12.484-20.423-27.62-25.283-43.919 9.648 12.823 24.736 20.497 41.147 20.497zm-96.019-135.507c0-9.787 3.889-18.912 10.95-25.694 6.698-6.434 15.406-9.927 24.663-9.927.495 0 .993.01 1.491.03 18.074.729 33.042 15.436 34.078 33.482a35.66 35.66 0 0 1-19.468 33.84c-5.223 2.651-9.094 7.08-10.899 12.471a125.374 125.374 0 0 0-5.193 21.854 125.545 125.545 0 0 0-5.21-21.903c-1.8-5.37-5.649-9.773-10.839-12.399-12.073-6.108-19.573-18.274-19.573-31.754zM277.853 352h-43.706c11.466-16.193 19.019-35 21.853-54.636C258.834 317 266.387 335.807 277.853 352zm-5.741-67.352a133.921 133.921 0 0 0-6.785-2.042 8.003 8.003 0 0 0-7.247 1.59 7.988 7.988 0 0 0-2.08 2.687 8.003 8.003 0 0 0-9.327-4.277 134.27 134.27 0 0 0-6.786 2.042c-5.418 1.792-9.89 5.693-12.59 10.984-6.125 12.001-18.27 19.457-31.695 19.457-9.787 0-18.912-3.889-25.694-10.95-6.777-7.056-10.292-16.344-9.896-26.153.728-18.074 15.435-33.043 33.482-34.078 14.112-.816 27.386 6.809 33.81 19.41 2.691 5.279 7.15 9.172 12.555 10.961 2.194.726 4.485 1.416 6.81 2.051a8.009 8.009 0 0 0 7.253-1.592 7.99 7.99 0 0 0 2.078-2.689 7.998 7.998 0 0 0 9.331 4.281 134.623 134.623 0 0 0 6.806-2.049c5.407-1.789 9.868-5.684 12.562-10.966a35.673 35.673 0 0 1 33.809-19.406c18.046 1.035 32.753 16.004 33.482 34.078.396 9.809-3.12 19.097-9.897 26.153-6.782 7.061-15.907 10.949-25.693 10.949-13.425 0-25.57-7.456-31.695-19.457-2.701-5.289-7.173-9.191-12.593-10.984z"/></g></svg>