<svg xmlns="http://www.w3.org/2000/svg" viewBox="0 0 211.969 211.969" width="512" height="512"><path d="M140.374 211.969l-.063-.001H31.043a2.998 2.998 0 0 1-2.982-3.329L46.728 39.338a2.999 2.999 0 0 1 2.982-2.671h26.191V24.75C75.901 11.103 87.004 0 100.651 0a24.7 24.7 0 0 1 6.577.887A24.7 24.7 0 0 1 113.805 0c13.647 0 24.75 11.103 24.75 24.75v11.917h27.846a3 3 0 0 1 2.989 2.743l14.523 169.292a2.992 2.992 0 0 1-.754 2.268 2.987 2.987 0 0 1-1.97.986l-.009.001c-.004-.001-.006-.001-.01.001h-.009l-.01.001-.009.001c-.004-.001-.008-.002-.01.001h-.01c-.003 0-.003.002-.01.001h-.01l-.01.001c-.006-.001-.009.001-.01.001h-.011l-.011.001h-.002a3.892 3.892 0 0 1-.152.003h-40.474l-.058.001zm4.893-6.001h27.816l-19.11-17.128-8.706 17.128zm-110.875 0h103.201l8.328-111.096c.002-.039.005-.077.009-.116l3.904-52.089H125.4V52.5a3 3 0 1 1-6 0v-9.833H81.9V52.5a3 3 0 1 1-6 0v-9.833H52.397L34.392 205.968zm121.614-23.364l21.283 19.075-13.642-159.012h-7.796l-3.93 52.42 4.085 87.517zm-7.786-38.134l-3.732 49.79 5.546-10.912-1.814-38.878zM125.401 36.667h7.154V24.75c0-9.206-6.67-16.884-15.431-18.456C122.2 10.83 125.4 17.423 125.4 24.75v11.917zm-30.345 0h24.345V24.75c0-8.025-5.069-14.89-12.173-17.56-7.104 2.67-12.172 9.534-12.172 17.56v11.917zm-13.155 0h7.155V24.75c0-7.327 3.2-13.92 8.276-18.456-8.761 1.572-15.431 9.25-15.431 18.456v11.917z" fill="#FFF"/></svg>