<svg xmlns="http://www.w3.org/2000/svg" viewBox="0 0 416 416" width="512" height="512"><path d="M326.433 304.28a61.123 61.123 0 0 0-6.04-12.56l-.24-.36-1.96-3.36c-1.4-2.36-2.8-4.72-4.44-7.28-2.44-3.76-4.68-7-7.32-10.8v-.24l-.24-.32-.44-.6c-11.12-16-18.92-27.28-42.4-20.44a42.256 42.256 0 0 0-10.28 4.8c-5.52 3.28-9.2 5.44-25.4-14.28-1.64-1.96-4-5.16-6.08-8.4a65.397 65.397 0 0 1-4.24-7.16l-.48-1.04a20.045 20.045 0 0 0-1.28-2.56l-4.4-10.48a88.01 88.01 0 0 1-4.72-26 26.721 26.721 0 0 1 2.84-15.2 7.2 7.2 0 0 1 1.48-1.4 13.933 13.933 0 0 1 2.64-1.48 34.5 34.5 0 0 1 4.84-1.4c11.32-2.72 26.8-6.48 23.24-32.48a166.946 166.946 0 0 0-6.72-29.24v-.24l-.84-2.8a125.05 125.05 0 0 0-5.56-14.96l-.32-.72c-2.68-6.16-5.24-12-14.52-15.68-23.78-7.918-49.695 3.433-60 26.28a54.378 54.378 0 0 0-3.36 16.6 96.032 96.032 0 0 0 .36 14.32 376.362 376.362 0 0 0 22.88 101.04 264.878 264.878 0 0 0 46.96 79.4c.6.68 1.08 1.32 1.6 1.96.52.64 1.44 1.8 2.44 2.92l3.52 4 1 1.12.32.36 18.56 19.28 3.36 3.4c7.28 7.52 10.12 10.48 24.8 10.36a75.159 75.159 0 0 0 31.4-8 38.321 38.321 0 0 0 19.04-18.84 25.205 25.205 0 0 0 0-17.52zm-10.52 13.44a27.4 27.4 0 0 1-13.64 12.84 62.927 62.927 0 0 1-26.24 6.76c-9.76 0-11.64-1.88-16.48-6.88l-3.52-3.6-18.52-19.24-1.12-1.2-3.56-4c-.64-.72-1.28-1.52-1.88-2.28-.6-.76-1.24-1.6-2-2.48a253.537 253.537 0 0 1-45.32-76 364.97 364.97 0 0 1-22.16-97.64 84.546 84.546 0 0 1-.32-12.68 43.076 43.076 0 0 1 2.6-13.08c8.033-17.022 27.425-25.469 45.36-19.76a14.963 14.963 0 0 1 8.24 9.52l.32.72a116.055 116.055 0 0 1 5.2 13.44l.84 2.84v.28a158.144 158.144 0 0 1 6.36 27.48c2.16 15.8-7.52 18.12-14.6 20a41.18 41.18 0 0 0-6.72 2 25.604 25.604 0 0 0-4.84 2.76 18.573 18.573 0 0 0-4 3.72 36.922 36.922 0 0 0-5.24 22.44 100.488 100.488 0 0 0 5.72 29.6v.24l4.56 10.88c.119.319.266.627.44.92.292.486.546.995.76 1.52l.64 1.48a76.276 76.276 0 0 0 5.04 8.56c2.32 3.48 4.88 7 6.8 9.32 22.44 27.32 29.44 23.16 40 16.88a33.362 33.362 0 0 1 7.64-3.68c15.6-4.56 21.44 4 29.8 16l.44.64.2.32v.24c2.48 3.56 4.56 6.56 7.08 10.44 1.52 2.32 2.88 4.64 4.2 6.92l2 3.32.24.4a51.965 51.965 0 0 1 5.48 10.32 14.319 14.319 0 0 1 .16 9.72h.04z" fill="#FFF"/><path d="M389.353 8a27.197 27.197 0 0 0-19.28-8H80.393c-15.048.044-27.236 12.232-27.28 27.28v36h-8.96c-13.443-.545-24.782 9.91-25.327 23.353-.545 13.443 9.91 24.782 23.353 25.327.658.027 1.316.027 1.974 0h9.08v71.68h-9.08c-13.443-.545-24.782 9.911-25.327 23.353-.545 13.443 9.911 24.782 23.353 25.327.658.027 1.316.027 1.974 0h9.08V304h-9.08c-13.443-.545-24.782 9.91-25.327 23.353s9.91 24.782 23.353 25.327c.658.027 1.316.027 1.974 0h9.08v36c.022 15.017 12.143 27.21 27.16 27.32h289.52c15.048-.044 27.236-12.232 27.28-27.28V27.44A27.245 27.245 0 0 0 389.353 8zm-347 92c-6.826-.55-11.914-6.529-11.365-13.355A12.4 12.4 0 0 1 42.353 75.28h33.08c6.826.55 11.914 6.529 11.365 13.355A12.4 12.4 0 0 1 75.433 100h-33.08zm0 120.24c-6.826-.55-11.914-6.529-11.365-13.355a12.4 12.4 0 0 1 11.365-11.365h33.08c6.826.55 11.914 6.529 11.365 13.355a12.4 12.4 0 0 1-11.365 11.365h-33.08zm0 120.24c-6.826-.55-11.914-6.529-11.365-13.355a12.4 12.4 0 0 1 11.365-11.365h33.08c6.826.55 11.914 6.529 11.365 13.355a12.4 12.4 0 0 1-11.365 11.365h-33.08zm343.52 48c0 8.837-7.163 16-16 16H80.393c-8.837 0-16-7.163-16-16v-36h8.96c13.443.545 24.782-9.91 25.327-23.353.545-13.443-9.91-24.782-23.353-25.327a24.064 24.064 0 0 0-1.974 0h-8.64v-71.44h8.96c13.443.545 24.782-9.91 25.327-23.353.545-13.443-9.91-24.782-23.353-25.327a24.064 24.064 0 0 0-1.974 0h-8.96V112h8.96c13.443.545 24.782-9.91 25.327-23.353S89.09 63.865 75.647 63.32a24.064 24.064 0 0 0-1.974 0h-8.96v-36c0-8.837 7.163-16 16-16h289.52c8.837 0 16 7.163 16 16l-.36 361.16z" fill="#FFF"/></svg>