<svg xmlns="http://www.w3.org/2000/svg" viewBox="0 0 321.334 321.334" width="512" height="512"><g fill="#FFF"><path d="M315.081 152.087l-29.333-20.373 17.395-31.195c1.895-3.4 2.351-7.334 1.286-11.078s-3.523-6.85-6.922-8.742l-41.693-23.244V38.76c0-8.038-6.539-14.578-14.577-14.578h-45.089L156.78 2.23A14.465 14.465 0 0 0 145.696.935a14.494 14.494 0 0 0-8.752 6.931l-8.235 14.776-13.882-9.65a14.46 14.46 0 0 0-10.896-2.385 14.463 14.463 0 0 0-9.397 6.034l-5.236 7.541H80.11c-8.038 0-14.577 6.54-14.577 14.578v19.635L2.615 148.968a14.472 14.472 0 0 0-2.381 10.904 14.47 14.47 0 0 0 6.032 9.385l29.332 20.376-17.39 31.188a14.469 14.469 0 0 0-1.3 11.074 14.49 14.49 0 0 0 6.933 8.761l41.69 23.247v18.686c0 8.038 6.539 14.577 14.577 14.577h45.087l39.372 21.948a14.483 14.483 0 0 0 7.079 1.847c5.114 0 10.087-2.694 12.756-7.471l8.233-14.763 13.883 9.641a14.495 14.495 0 0 0 8.289 2.595c4.619 0 9.17-2.182 12.006-6.249l5.244-7.548h9.179c8.038 0 14.577-6.539 14.577-14.577v-19.631l62.92-90.583c4.585-6.596 2.948-15.696-3.652-20.288zm-21.468-64.399a6.527 6.527 0 0 1 3.121 3.941 6.54 6.54 0 0 1-.579 4.995l-17.01 30.504-23.332-16.205V66.615l37.8 21.073zM143.932 11.761a6.548 6.548 0 0 1 3.952-3.131 6.522 6.522 0 0 1 4.997.585l26.841 14.967h-42.718l6.928-12.421zm-42.827 9.441a6.532 6.532 0 0 1 4.239-2.722 6.513 6.513 0 0 1 4.914 1.077l6.659 4.624H99.036l2.069-2.979zM8.108 158.453a6.527 6.527 0 0 1 1.076-4.919l56.348-81.116v128.267l-54.703-38a6.52 6.52 0 0 1-2.721-4.232zm19.629 75.216a6.548 6.548 0 0 1-3.132-3.956 6.51 6.51 0 0 1 .587-4.992L42.2 194.219l23.331 16.207v44.317l-37.794-21.074zm149.68 75.922c-1.77 3.167-5.781 4.308-8.951 2.537l-26.84-14.962h42.718l-6.927 12.425zm42.83-9.447c-2.076 2.979-6.189 3.72-9.166 1.653l-6.667-4.631h17.901l-2.068 2.978zm27.567-17.555a6.584 6.584 0 0 1-6.577 6.577H80.109a6.584 6.584 0 0 1-6.577-6.577V38.76a6.585 6.585 0 0 1 6.577-6.578h161.128a6.585 6.585 0 0 1 6.577 6.578v243.829zm64.35-114.779l-56.351 81.125V120.664l54.701 37.992c2.978 2.072 3.719 6.178 1.65 9.154z"/><path d="M196.508 128.379c-5.122-5.123-11.933-7.943-19.178-7.943-6.112 0-11.916 2.008-16.657 5.712-4.742-3.704-10.546-5.712-16.658-5.712-7.245 0-14.056 2.82-19.178 7.943-10.575 10.574-10.575 27.78 0 38.354l33.007 33.008a4.001 4.001 0 0 0 5.656 0l33.008-33.008c10.575-10.574 10.575-27.78 0-38.354zm-5.656 32.698l-30.18 30.179-30.179-30.179c-7.455-7.456-7.455-19.586 0-27.042a18.997 18.997 0 0 1 13.521-5.6c5.107 0 9.909 1.988 13.517 5.596l.308.309a4.002 4.002 0 0 0 2.83 1.176h.003a4 4 0 0 0 2.828-1.172l.309-.309a19 19 0 0 1 13.521-5.6c5.108 0 9.91 1.988 13.521 5.6 7.456 7.456 7.456 19.586.001 27.042zm-66.149-94.561c2.801-2.8 4.343-6.522 4.343-10.482s-1.542-7.683-4.343-10.482a14.723 14.723 0 0 0-10.482-4.343c-2.799 0-5.479.771-7.799 2.211a14.726 14.726 0 0 0-7.798-2.211 14.72 14.72 0 0 0-10.482 4.343c-2.801 2.8-4.343 6.522-4.343 10.482s1.542 7.683 4.343 10.481l15.452 15.453a4.001 4.001 0 0 0 5.656 0l15.309-15.309.144-.143zm-5.656-5.657l-12.625 12.624-12.479-12.48-.145-.146a6.776 6.776 0 0 1-1.999-4.824c0-1.823.71-3.537 1.999-4.826s3.003-1.999 4.826-1.999 3.537.71 4.816 1.99l.144.145a4.003 4.003 0 0 0 2.831 1.181h.007a3.995 3.995 0 0 0 2.828-1.172l.145-.145c1.289-1.289 3.003-1.999 4.826-1.999s3.537.71 4.826 1.999 1.999 3.003 1.999 4.826a6.78 6.78 0 0 1-1.999 4.826zm103.674 177.349c-2.799 0-5.479.771-7.799 2.211a14.726 14.726 0 0 0-7.798-2.211 14.72 14.72 0 0 0-10.482 4.343 14.723 14.723 0 0 0-4.343 10.482c0 3.96 1.542 7.683 4.343 10.481l15.452 15.453a4.001 4.001 0 0 0 5.656 0l15.309-15.309.145-.144a14.723 14.723 0 0 0 4.343-10.482 14.72 14.72 0 0 0-4.343-10.482 14.73 14.73 0 0 0-10.483-4.342zm4.826 19.651l-12.625 12.624-12.479-12.479-.145-.146a6.776 6.776 0 0 1-1.999-4.824c0-1.823.71-3.537 1.999-4.826s3.003-1.999 4.826-1.999 3.537.71 4.816 1.99l.144.145a4.003 4.003 0 0 0 2.831 1.181h.007a3.995 3.995 0 0 0 2.828-1.172l.145-.145c1.289-1.289 3.003-1.999 4.826-1.999s3.537.71 4.826 1.999 1.999 3.003 1.999 4.826a6.78 6.78 0 0 1-1.999 4.825z"/></g></svg>