<?xml version="1.0" encoding="utf-8"?>
<!-- Generator: Adobe Illustrator 17.1.0, SVG Export Plug-In . SVG Version: 6.00 Build 0)  -->
<!DOCTYPE svg PUBLIC "-//W3C//DTD SVG 1.1//EN" "http://www.w3.org/Graphics/SVG/1.1/DTD/svg11.dtd">
<svg version="1.1" id="Слой_1" xmlns="http://www.w3.org/2000/svg" xmlns:xlink="http://www.w3.org/1999/xlink" x="0px" y="0px"
	 viewBox="88.7 26.8 2751.3 2864.6" enable-background="new 88.7 26.8 2751.3 2864.6" xml:space="preserve">
<path display="none" fill="none" stroke="#000000" stroke-miterlimit="10" d="M3042.4,763.6c-19.2,306.7-145,706.8-549.2,1127.2
	C1613.2,2807.2,612.4,3271,620.9,3201.3l-57.1-568.4L-3,2591.4c-15.2-1.5-6.5-41.5,0-115.2"/>
<path display="none" fill="none" stroke="#000000" stroke-miterlimit="10" d="M573.9,2530.8L4.6,2489.4
	C-64.7,2500,370.8,1487,1262.5,581.7C2140.1-309.5,2957,80.6,2957,80.6s412.7,805.8-453.7,1708.2
	C1623.3,2705.2,622.5,3168.9,631,3099.1L573.9,2530.8z"/>
<path display="none" fill="none" stroke="#000000" stroke-miterlimit="10" d="M573.9,2530.8c-10.1,102-10.1,102-10.1,102"/>
<path display="none" fill="none" stroke="#000000" stroke-miterlimit="10" d="M633.5,3104.2c-9.1,102.6-9.1,102.6-9.1,102.6"/>
<path fill="none" stroke="#000000" stroke-width="30" stroke-miterlimit="10" d="M2819,906.3c-6.8,246-113.3,502.6-313.3,701.5
	L1530,2579c-369.2,367.4-917.8,398.8-1225.2,69.8l0,0C146,2478.8,82.8,2245.5,109.7,2009.1"/>
<path fill="none" stroke="#000000" stroke-width="30" stroke-miterlimit="10" d="M2623.7,269c307.4,328.3,256.8,892.1-112.2,1258.8
	l-975.6,969.4c-369.2,366.8-917.7,398-1225.1,69.7l0,0C3.5,2238.7,54,1674.9,423.1,1308.2l976-969.4
	C1768.2-28,2316.8-59.4,2623.7,269L2623.7,269z"/>
<path display="none" fill="none" stroke="#000000" stroke-miterlimit="10" d="M1290.9,818.7c28.3,29.9,34.3,72.2-16.2,121.3
	l-133.9,128.9c-50.5,49-93.5,44-121.8,14.7l0,0c-28.3-29.9-32.4-72.7,18.7-121.8l133.9-128.9
	C1221.6,783.8,1262.5,788.9,1290.9,818.7L1290.9,818.7z"/>
<path display="none" fill="none" stroke="#000000" stroke-miterlimit="10" d="M1024.6,1088c44-81.9,198.6-232.4,270.7-264.8"/>
</svg>
