<?xml version="1.0" encoding="utf-8"?>
<!-- Generator: Adobe Illustrator 17.1.0, SVG Export Plug-In . SVG Version: 6.00 Build 0)  -->
<!DOCTYPE svg PUBLIC "-//W3C//DTD SVG 1.1//EN" "http://www.w3.org/Graphics/SVG/1.1/DTD/svg11.dtd">
<svg version="1.1" id="Слой_1" xmlns="http://www.w3.org/2000/svg" xmlns:xlink="http://www.w3.org/1999/xlink" x="0px" y="0px"
	 viewBox="176.4 -28.5 2734.3 2864.6" enable-background="new 176.4 -28.5 2734.3 2864.6" xml:space="preserve">
<path fill="none" stroke="#000000" stroke-width="30" stroke-miterlimit="10" d="M2884.3,664.2c-17,270.6-127.9,623.7-484.3,994.5
	C1624,2467.4,741.4,2876.6,749,2815.1l-50.3-501.5L198.9,2277c-13.4-1.3-5.8-36.6,0-101.6"/>
<path fill="none" stroke="#000000" stroke-width="30" stroke-miterlimit="10" d="M707.7,2223.6L205.1,2187
	c-61.1,9.4,323-884.4,1109.3-1683.3C2088.7-282.6,2809,61.5,2809,61.5s364,711-400.1,1507.2c-776.1,808.7-1658.6,1217.9-1651,1156.4
	L707.7,2223.6z"/>
<path fill="none" stroke="#000000" stroke-width="30" stroke-miterlimit="10" d="M707.7,2223.6c-8.9,90-8.9,90-8.9,90"/>
<path fill="none" stroke="#000000" stroke-width="30" stroke-miterlimit="10" d="M760.9,2730.1c-8,90.5-8,90.5-8,90.5"/>
</svg>
